<svg width="48" height="48" viewBox="0 0 48 48" fill="none" xmlns="http://www.w3.org/2000/svg">
<path d="M45.7131 1.14344C46.0699 1.14344 46.4268 1.14337 46.7834 1.14356C46.8234 1.14359 46.8449 1.17261 46.8558 1.23867C46.5932 1.47207 46.2399 1.296 45.944 1.44236C45.8005 1.63508 45.8485 1.84293 45.895 2.04017C46.2035 2.25472 46.588 2.03855 46.8558 2.28617C47.2127 2.28617 47.5695 2.28609 47.9262 2.28629C47.9662 2.28631 47.9876 2.31533 47.9985 2.38139C47.7536 2.60639 47.4112 2.47536 47.1348 2.61187C46.9546 2.8486 47.0136 3.12714 47.0134 3.38896C47.0096 8.29077 47.0108 13.1926 47.0108 18.0944C47.0106 26.9937 47.0115 35.8931 47.0077 44.7926C47.0077 45.103 47.0779 45.4327 46.8558 45.7096C46.5939 45.9427 46.238 45.7722 45.9495 45.916C45.7467 46.1967 45.9623 46.585 45.7131 46.8523C45.5738 46.9797 45.4005 46.9961 45.2241 47.003C45.0813 47.0087 44.9384 47.0075 44.7958 47.0075C30.7825 47.0099 16.7691 47.0035 2.75581 47.0109C2.59754 47.0109 2.43715 47.0268 2.28965 46.9476H1.31417C1.27462 46.9473 1.25322 46.9183 1.24215 46.8523C1.47715 46.615 1.82977 46.818 2.08767 46.6259C2.19204 46.4067 2.17526 46.1812 2.09917 45.9515C1.80623 45.7239 1.44818 45.9443 1.14693 45.8048H0.171446C0.131903 45.8046 0.110501 45.7755 0.0994304 45.7096C0.309953 45.493 0.622702 45.6146 0.858222 45.4808C1.02799 45.1035 1.06451 3.19922 0.892479 2.63489C0.63032 2.44855 0.256055 2.62232 0.00420355 2.38139C-0.00650947 2.34592 0.00287029 2.31597 0.036771 2.30271C0.0635774 2.29221 0.0941214 2.28693 0.123023 2.28683C0.46434 2.28579 0.805633 2.28617 1.14693 2.28617C1.40928 2.0526 1.76309 2.2292 2.05627 2.08231C2.19275 1.8884 2.1744 1.68209 2.08441 1.46722C1.79894 1.27017 1.41494 1.48631 1.14693 1.23867C1.13621 1.2032 1.14559 1.17325 1.17949 1.15999C1.2063 1.14949 1.23684 1.14421 1.26574 1.14411C1.60706 1.14306 1.94835 1.14344 2.28965 1.14344C2.42875 1.01622 2.60199 0.999295 2.77823 0.992391C2.93679 0.986201 3.09543 0.987891 3.25403 0.987891C17.0856 0.987772 30.9172 0.987248 44.7487 0.991057C45.0744 0.991153 45.4205 0.91309 45.7131 1.14344Z" fill="#2177A5"/>
<path d="M45.713 1.14343H2.28957C2.28957 0.778447 2.28957 0.41349 2.28955 0.0484859C2.31464 0.0325354 2.33928 0.00382452 2.36495 0.00287226C2.49172 -0.00188909 2.61875 0.000705764 2.74571 0.000705764H45.2569C45.3838 0.000705764 45.5107 0.00025346 45.6378 0.00132476C45.6516 0.0014438 45.6656 0.0101093 45.6783 0.0143945C45.6904 0.0262979 45.7116 0.037368 45.7116 0.0485095C45.7132 0.41349 45.713 0.778447 45.713 1.14343Z" fill="black"/>
<path d="M2.28958 46.9475C2.30545 46.9475 2.32664 46.9542 2.33624 46.9463C2.37252 46.917 2.40504 46.883 2.43725 46.8523H45.713V47.9472C45.688 47.9631 45.6633 47.9919 45.6376 47.9929C45.5109 47.9976 45.3838 47.995 45.2569 47.995H2.74574C2.61878 47.995 2.49184 47.9955 2.3649 47.9943C2.35093 47.9943 2.33705 47.9857 2.32417 47.9812C2.31217 47.9695 2.29105 47.9584 2.291 47.9472C2.28924 47.6141 2.28958 47.2808 2.28958 46.9475Z" fill="black"/>
<path d="M46.8557 45.7096C46.8557 31.2918 46.8557 16.8739 46.8562 2.45612C46.8562 2.44227 46.8652 2.42841 46.8686 2.41903C46.8824 2.40439 46.8931 2.38287 46.904 2.38282C47.2688 2.38106 47.6337 2.38137 47.9984 2.38137C47.9984 16.7992 47.9984 31.217 47.9977 45.6348C47.9977 45.6486 47.9889 45.6624 47.9856 45.672C47.9718 45.6865 47.9611 45.7081 47.9501 45.7081C47.5854 45.7098 47.2204 45.7096 46.8557 45.7096Z" fill="black"/>
<path d="M0.00415012 2.38137C0.369131 2.38137 0.734087 2.38137 1.09909 2.38135C1.11504 2.40644 1.14375 2.43108 1.14471 2.45674C1.14947 2.58351 1.14687 2.71055 1.14687 2.83751V45.2534C1.14687 45.3803 1.1473 45.5072 1.14625 45.6344C1.14613 45.6482 1.13749 45.6622 1.13316 45.6748C1.1213 45.687 1.11023 45.7082 1.09907 45.7082C0.765846 45.7098 0.432623 45.7096 0.099377 45.7096C0.0630241 45.7208 0.0324086 45.711 0.0192673 45.6755C0.00898276 45.6479 0.00514984 45.6165 0.00479273 45.5865C0.00329291 45.4596 0.00415012 45.3327 0.00415012 45.2058V2.38137Z" fill="black"/>
<path d="M45.7132 46.8523C45.7132 46.4917 45.7129 46.1312 45.7141 45.7706C45.7141 45.7582 45.7291 45.7458 45.737 45.7334C45.7493 45.7256 45.7617 45.7106 45.7741 45.7106C46.1348 45.7094 46.4952 45.7096 46.8559 45.7096C46.8559 46.0703 46.8561 46.4307 46.8549 46.7914C46.8549 46.8038 46.8399 46.8161 46.8321 46.8285C46.8197 46.8364 46.8073 46.8514 46.7949 46.8514C46.4343 46.8526 46.0738 46.8523 45.7132 46.8523Z" fill="black"/>
<path d="M1.14705 45.8048C1.16286 45.8048 1.18397 45.8115 1.19347 45.8037C1.22961 45.7744 1.26196 45.7403 1.29329 45.7106H2.24351C2.25927 45.7368 2.28758 45.7618 2.28779 45.7872C2.29077 46.1189 2.28998 46.4505 2.28903 46.7821C2.28898 46.7957 2.27806 46.809 2.2722 46.8223C2.26053 46.8323 2.24894 46.8509 2.23725 46.8511C1.9056 46.8526 1.57393 46.8523 1.24227 46.8523C1.2069 46.8631 1.17697 46.8538 1.16371 46.82C1.15319 46.7931 1.14783 46.7626 1.14771 46.7338C1.14664 46.4243 1.14705 46.1146 1.14705 45.8048Z" fill="black"/>
<path d="M1.14697 1.23867C1.5111 1.23867 1.87522 1.23867 2.23939 1.23865C2.25617 1.26284 2.28724 1.28686 2.28753 1.31123C2.29086 1.61201 2.28991 1.91281 2.28903 2.21363C2.28898 2.22727 2.27905 2.24089 2.27374 2.2545C2.26229 2.26505 2.25087 2.28479 2.23934 2.28483C1.87522 2.28645 1.5111 2.28617 1.14697 2.28617V1.23867Z" fill="black"/>
<path d="M46.8558 2.28616C46.4916 2.28616 46.1276 2.28616 45.7633 2.28619C45.7466 2.262 45.7155 2.23798 45.7152 2.2136C45.7119 1.91283 45.7128 1.61203 45.7138 1.31121C45.7138 1.29756 45.7238 1.28395 45.729 1.27033C45.7404 1.25978 45.7519 1.24005 45.7633 1.24C46.1276 1.23838 46.4916 1.23867 46.8558 1.23867V2.28616Z" fill="black"/>
<path d="M44.5451 3.42883C44.5611 3.47638 44.5699 3.4903 44.5699 3.50423C44.5703 17.1679 44.5703 30.8315 44.5696 44.4954C44.5696 44.509 44.5592 44.5225 44.5537 44.5359C44.542 44.5463 44.5303 44.5656 44.5187 44.5656C30.8391 44.5668 17.1596 44.5668 3.48001 44.5668C3.4641 44.5416 3.43547 44.5171 3.43451 44.4914C3.42975 44.3645 3.43235 44.2376 3.43235 44.1104V3.88118C3.43235 3.75425 3.43185 3.62729 3.43308 3.50032C3.43323 3.48673 3.44354 3.47323 3.44913 3.45966C3.46072 3.4494 3.47234 3.43009 3.48396 3.43009C17.1635 3.42883 30.8432 3.42883 44.5451 3.42883Z" fill="#E7F6FB"/>
<path d="M4.67023 43.4241C4.63385 43.4353 4.60323 43.4255 4.59009 43.3901C4.57981 43.3622 4.57607 43.3308 4.57564 43.301C4.57402 43.1901 4.575 43.0789 4.575 42.968V4.60772C4.70186 4.53406 4.82999 4.58156 4.95195 4.5737C5.09418 4.56453 5.23742 4.57156 5.38021 4.57156H43.3871C43.4106 4.60622 43.4266 4.6186 43.4266 4.63096C43.4275 17.2129 43.4275 29.7948 43.4275 42.3766C43.0497 42.4764 42.6788 42.4468 42.337 42.3404C42.0422 42.0547 42.2294 41.665 42.0556 41.3765C41.7761 41.192 41.4114 41.3715 41.1383 41.1465C40.9152 40.8916 41.0764 40.5299 40.9157 40.2414C40.6498 40.0407 40.2822 40.2309 39.9925 40.0014C39.7715 39.7641 39.928 39.4039 39.7801 39.1072C39.523 38.8942 39.1552 39.0846 38.8588 38.8696C38.6107 38.6316 38.8043 38.2412 38.6219 37.9464C38.351 37.7641 37.9877 37.9405 37.7104 37.725C37.4844 37.4705 37.6468 37.1103 37.4916 36.8149C37.2199 36.6054 36.8281 36.8125 36.5574 36.5728C36.3415 36.3052 36.5115 35.9448 36.3431 35.6619C36.0658 35.481 35.7037 35.6524 35.423 35.4353C35.1926 35.1846 35.3645 34.8235 35.2088 34.5287C34.9464 34.3307 34.5822 34.5083 34.2877 34.2964C34.0322 34.0576 34.2403 33.6636 34.0501 33.3743C33.7749 33.1989 33.4123 33.3651 33.1166 33.1287C32.9266 32.8042 33.0164 32.4178 33.0069 32.044C32.9778 31.7522 33.0719 31.4477 32.9271 31.1689C32.6605 31.0146 32.356 31.1418 32.0917 31.028C32.0389 31.003 32.0027 30.9637 31.982 30.9094C32.3079 30.5675 32.725 30.7623 33.1009 30.7182C33.4233 30.6897 33.757 30.782 34.0648 30.6473C34.1803 30.4371 34.1677 30.2426 34.0851 30.0502C33.8025 29.81 33.3764 30.0945 33.1238 29.7722C33.4499 29.4196 33.8715 29.6155 34.2513 29.5738C34.5612 29.5465 34.8795 29.6234 35.2299 29.4919C35.3278 28.9213 35.3095 28.3388 35.2442 27.7805C34.9209 27.5569 34.5315 27.7781 34.2696 27.5105C34.3727 27.2315 34.6236 27.3039 34.8281 27.2853C35.0145 27.2684 35.2038 27.2715 35.3909 27.2882C35.7013 27.2613 36.0201 27.3372 36.3722 27.2072C36.4707 26.6361 36.4527 26.0528 36.3862 25.4953C36.0627 25.2705 35.6711 25.4958 35.4114 25.221C35.5399 24.9315 35.8082 25.0187 36.0308 24.9977C36.2039 24.9815 36.3798 24.9882 36.5536 25.0018C36.8505 24.972 37.1557 25.0432 37.5347 24.9001C37.6023 23.5872 37.5682 22.2438 37.5561 20.9503C37.1966 20.7201 36.8314 20.9046 36.5698 20.6744C36.5788 20.4437 36.7674 20.4571 36.9128 20.4397C37.165 20.4097 37.4197 20.4152 37.6725 20.4318C37.9832 20.4056 38.3015 20.479 38.6579 20.3524C38.7707 19.7837 38.7141 19.2001 38.6874 18.6495C38.3522 18.415 37.9632 18.634 37.6987 18.3727C37.7932 18.0895 38.0437 18.1643 38.2446 18.1447C38.4284 18.1267 38.6155 18.1309 38.8002 18.1473C39.1245 18.1195 39.4592 18.2108 39.7742 18.0775C39.8968 17.8756 39.8784 17.6802 39.802 17.4824C39.5209 17.2391 39.0942 17.5209 38.8374 17.2073C39.1528 16.8405 39.573 17.0509 39.9458 17.0047C40.2693 16.9766 40.6036 17.0686 40.9255 16.931C41.0419 16.7326 41.0074 16.5369 40.9612 16.353C40.6633 16.0981 40.2396 16.3749 39.9801 16.0681C40.2889 15.6953 40.7069 15.9106 41.0752 15.8623C41.398 15.8414 41.7285 15.9211 42.0491 15.8014C42.2115 15.5657 42.1508 15.3279 42.0996 15.0816C41.7677 14.9138 41.4385 15.0314 41.1178 15.022C40.7424 14.9549 40.3443 15.0786 39.9846 14.8859C39.7794 14.6355 39.9358 14.2961 39.7911 14.0381C39.4923 13.844 39.1064 14.0647 38.8407 13.8011C38.935 13.5207 39.1835 13.594 39.383 13.5745C39.5656 13.5566 39.7516 13.5614 39.9349 13.5768C40.2603 13.552 40.5957 13.6414 40.9169 13.5074C41.05 13.2785 41.0247 13.0517 40.9478 12.8083C40.6234 12.6054 40.2722 12.7596 39.9346 12.74C39.2745 12.7285 38.6129 12.6597 37.9818 12.778C37.7825 13.0935 37.9408 13.459 37.6554 13.7869C36.9571 13.9146 36.1994 13.8961 35.4892 13.7965C35.2042 13.4773 35.348 13.1182 35.2054 12.8297C34.9366 12.6267 34.5705 12.7993 34.2824 12.5818C34.0477 12.3476 34.2148 11.9823 34.001 11.5858C31.9389 11.5656 29.8149 11.5781 27.7373 11.5787C27.4844 11.9193 27.6596 12.285 27.4382 12.5748C27.2061 12.8105 26.8405 12.64 26.5464 12.7993C26.3317 13.0627 26.5298 13.46 26.2791 13.7267C26.0208 13.9422 25.6537 13.7766 25.3623 13.9799C25.1699 14.623 25.4268 15.3266 25.2018 15.9454C24.9193 16.2298 24.5534 16.0727 24.2686 16.2293C24.1191 16.3981 24.1522 16.6116 24.1513 16.8133C24.1467 17.8276 24.1524 18.8419 24.1472 19.8562C24.1458 20.1064 24.1748 20.3672 23.9358 20.6625C22.8583 20.7649 21.7199 20.7335 20.661 20.6768C20.3496 20.3245 20.4955 19.9629 20.3427 19.6817C20.0759 19.4934 19.74 19.6411 19.4712 19.492C19.1613 19.2288 19.3996 18.8181 19.2073 18.5087C19.0266 18.3855 18.8309 18.4192 18.6454 18.4637C18.3876 18.7617 18.6641 19.1871 18.3575 19.4459C17.9862 19.1268 18.1964 18.7014 18.1503 18.3232C18.1257 18.0043 18.1982 17.676 18.0887 17.3764C17.7756 17.189 17.4055 17.3763 17.1305 17.1517C16.9215 16.8796 17.0809 16.5373 16.9704 16.2466C16.6684 15.9886 16.2347 16.2776 15.9527 15.9852C15.7846 15.7184 15.9258 15.3833 15.7609 15.1095C15.4917 14.9224 15.1233 15.0848 14.8627 14.8634C14.6285 14.6066 14.7887 14.2391 14.6141 13.9632C14.3403 13.7814 13.9724 13.9447 13.713 13.7167C13.4878 13.4564 13.6481 13.0897 13.4684 12.8148C13.202 12.6446 12.8616 12.7894 12.5831 12.5925C12.3278 12.3516 12.5103 11.9578 12.3335 11.6806C12.0466 11.499 11.6802 11.6566 11.4212 11.4269C11.2145 11.1736 11.3458 10.8347 11.2004 10.5516C10.9366 10.3319 10.5363 10.533 10.2693 10.2727C10.0724 10.0256 10.205 9.68634 10.0548 9.40634C9.79867 9.1947 9.42545 9.37889 9.12306 9.12892C8.91234 8.91447 9.0707 8.54883 8.9113 8.25981C8.65152 8.05891 8.28168 8.23039 7.99848 8.00334C7.77419 7.7657 7.92191 7.40391 7.77948 7.11935C7.50884 6.91338 7.13984 7.09059 6.85442 6.86136C6.62795 6.62717 6.78578 6.26167 6.62383 5.97308C6.36455 5.7718 5.99357 5.94813 5.70225 5.70709C5.50617 5.51152 5.63102 5.17982 5.48065 4.9268C5.31301 4.80234 5.13322 4.81279 4.93565 4.89402C4.75255 5.14366 4.82364 5.43848 4.82356 5.71497C4.81992 17.9787 4.82099 30.2423 4.81745 42.5061C4.81735 42.8163 4.88972 43.1458 4.67023 43.4241Z" fill="#2EA9DD"/>
<path d="M32.0005 30.9494H32.0957C32.3133 31.1801 32.1634 31.5053 32.3055 31.7657C32.5495 31.9533 32.9066 31.7652 33.1432 31.9969V33.0917C33.1682 33.1077 33.1932 33.1372 33.2185 33.1375C33.5199 33.1408 33.8212 33.1391 34.1226 33.1401C34.1679 33.1403 34.2131 33.147 34.2507 33.1501C34.2671 33.1708 34.2848 33.1827 34.2848 33.1946C34.2862 33.5431 34.286 33.8914 34.286 34.2316C34.31 34.2704 34.3359 34.2826 34.3686 34.2826C34.6859 34.2821 35.0033 34.283 35.3206 34.2811C35.3558 34.2811 35.3839 34.2823 35.4056 34.3068C35.4132 34.3195 35.4277 34.3321 35.4277 34.3449C35.4289 34.6925 35.4287 35.0401 35.4287 35.3884C35.5544 35.4631 35.6827 35.4141 35.8046 35.4229C35.9308 35.4322 36.0586 35.4191 36.185 35.4267C36.3079 35.4343 36.4347 35.3953 36.5552 35.4481C36.5897 35.5779 36.5652 35.7038 36.5704 35.8283C36.575 35.9393 36.5714 36.0504 36.5714 36.1614V36.5213C36.5985 36.5463 36.61 36.5663 36.6214 36.5663C36.9702 36.568 37.3192 36.5678 37.6672 36.5678C37.6834 36.5947 37.712 36.6199 37.7122 36.6454C37.7151 36.9627 37.7136 37.2801 37.7151 37.5972C37.7151 37.6262 37.7279 37.655 37.7348 37.6836C37.7472 37.6926 37.7594 37.7093 37.7715 37.7093C38.1198 37.7107 38.4678 37.7105 38.8202 37.7105C38.8947 37.8312 38.8454 37.9597 38.8547 38.0812C38.8645 38.2073 38.8516 38.3352 38.8583 38.4618C38.8649 38.5851 38.8304 38.7116 38.878 38.8346C39.0049 38.8751 39.1311 38.8458 39.2551 38.852C39.3658 38.8575 39.477 38.8532 39.5882 38.8532H39.952C39.9753 38.8765 39.9962 38.8877 39.9962 38.8989C39.9979 39.2477 39.9977 39.5965 39.9977 39.944C40.0236 39.9621 40.0477 39.9935 40.0719 39.9938C40.3733 39.9971 40.675 39.9955 40.9764 39.9964C41.0218 39.9964 41.0671 40.0026 41.1051 40.0055C41.1221 40.025 41.1409 40.0366 41.1411 40.0483C41.1425 40.3968 41.1423 40.7456 41.1423 41.0894C41.1647 41.1241 41.1904 41.1386 41.2223 41.1386C41.5396 41.1386 41.857 41.1394 42.1741 41.1377C42.2091 41.1375 42.2376 41.1386 42.26 41.1613C42.2683 41.1736 42.2838 41.186 42.2841 41.1984C42.2852 41.5465 42.285 41.8943 42.285 42.2338C42.3048 42.2535 42.3157 42.2745 42.3271 42.2745C42.6435 42.2761 42.9602 42.2759 43.2742 42.2759C43.3123 42.3121 43.3449 42.3461 43.3811 42.3754C43.3906 42.3833 43.4118 42.3766 43.4277 42.3766V43.3758C43.4027 43.392 43.3785 43.4212 43.353 43.422C43.2104 43.4265 43.0675 43.4241 42.9247 43.4241H4.67041C4.67041 30.528 4.67041 17.6321 4.67117 4.73607C4.67117 4.72274 4.68262 4.70941 4.68874 4.69606C4.70055 4.6863 4.71233 4.66806 4.72419 4.66801C5.04089 4.66646 5.35759 4.66677 5.66798 4.66677C5.70457 4.68991 5.7181 4.71562 5.71807 4.74786C5.71779 5.03337 5.71871 5.31891 5.71688 5.6044C5.71664 5.6394 5.71791 5.66787 5.74119 5.68994C5.75369 5.69806 5.76616 5.7132 5.77871 5.71324C6.12648 5.71453 6.47424 5.71427 6.8228 5.71427C6.89986 5.83783 6.84949 5.96633 6.85853 6.08799C6.86794 6.21419 6.85491 6.34196 6.86225 6.46844C6.86941 6.59147 6.83232 6.71813 6.88286 6.83971C7.0113 6.87694 7.13726 6.85032 7.26148 6.85594C7.37231 6.86094 7.48353 6.85699 7.59456 6.85699H7.95574C7.98076 6.88201 8.00171 6.89318 8.00178 6.90444C8.00349 7.25337 8.00318 7.60233 8.00318 7.95124C8.0282 7.96745 8.05294 7.99733 8.07801 7.99762C8.37935 8.00085 8.68072 7.99926 8.98211 8.00019C9.02728 8.00033 9.07241 8.00688 9.11022 8.00988C9.12679 8.03026 9.14481 8.04209 9.14486 8.05402C9.14636 8.40238 9.14607 8.75077 9.14607 9.09227C9.1695 9.12956 9.19523 9.14267 9.22761 9.14265C9.54486 9.14229 9.8621 9.14317 10.1793 9.14141C10.2144 9.1412 10.2428 9.14243 10.2647 9.166C10.2728 9.17855 10.2877 9.19107 10.2878 9.20364C10.2891 9.55136 10.2888 9.89911 10.2888 10.2475C10.4128 10.3242 10.5412 10.2741 10.6629 10.2831C10.7891 10.2924 10.9169 10.2794 11.0434 10.2868C11.1664 10.294 11.2931 10.2566 11.4144 10.3075C11.4512 10.4362 11.425 10.5622 11.4305 10.6864C11.4354 10.7972 11.4287 10.9086 11.4323 11.0195C11.4363 11.1444 11.4169 11.2703 11.4423 11.3903C11.4571 11.4053 11.4681 11.4264 11.4793 11.4265C11.8283 11.4282 12.1772 11.4279 12.5262 11.4279C12.5423 11.4529 12.5719 11.4778 12.5722 11.5029C12.5754 11.8043 12.5738 12.1057 12.5747 12.4071C12.5749 12.4523 12.5815 12.4974 12.5845 12.535C12.6051 12.5515 12.617 12.5693 12.6289 12.5694C12.9773 12.5709 13.3256 12.5706 13.6666 12.5706C13.7045 12.5943 13.7172 12.6201 13.7172 12.6525C13.7168 12.9698 13.7177 13.287 13.7159 13.6043C13.7157 13.6394 13.717 13.6677 13.7408 13.6896C13.7534 13.6975 13.766 13.7123 13.7786 13.7123C14.1263 13.7136 14.4739 13.7133 14.8223 13.7133C14.8985 13.8377 14.8486 13.9661 14.8576 14.0878C14.8669 14.2141 14.8538 14.3418 14.8613 14.4683C14.8686 14.5913 14.8308 14.718 14.8822 14.8391C15.0111 14.8754 15.1371 14.8496 15.2614 14.855C15.3722 14.8599 15.4835 14.8531 15.5944 14.8568C15.7193 14.861 15.8452 14.8412 15.9626 14.8665C15.9795 14.8825 16.0009 14.8933 16.001 14.9043C16.0027 15.2691 16.0024 15.6339 16.0024 15.9988C16.3372 16.12 16.6935 15.9867 17.0554 16.0855C17.1259 16.4391 17.107 16.7964 17.0675 17.1547C16.7404 17.3663 16.3762 17.268 16.0256 17.2799C15.2588 17.254 14.4838 17.3657 13.776 17.2118C13.4879 16.8973 13.6535 16.5332 13.4856 16.2473C13.2236 16.0498 12.8567 16.2259 12.5767 16.0068C12.3459 15.7637 12.507 15.4011 12.3484 15.1082C12.0919 14.9019 11.7246 15.0842 11.437 14.8685C11.1878 14.6267 11.3825 14.235 11.1902 13.944C10.9261 13.7903 10.6377 13.8904 10.3593 13.8815C10.0329 13.8744 9.70296 13.7828 9.37464 13.9122C9.18633 14.1959 9.35498 14.5434 9.20452 14.8294C9.17531 14.8759 9.13579 14.9102 9.08651 14.9337C8.82047 15.0449 8.51765 14.9411 8.1714 15.1074C8.12562 16.07 8.13164 17.0643 8.16778 18.0357C8.53705 18.2035 8.85858 18.1147 9.16921 18.1464C9.40766 18.1297 9.64646 18.1271 9.88317 18.1484C10.0484 18.1633 10.2466 18.1428 10.3049 18.3711C10.052 18.6283 9.68903 18.4385 9.353 18.6208C9.17583 19.593 9.39737 20.622 9.23344 21.6283C9.21218 21.6802 9.17885 21.7236 9.13522 21.7586C8.85518 21.9233 8.50867 21.7726 8.19142 21.9581C8.10722 22.548 8.12548 23.1501 8.17933 23.7528C8.5175 23.9312 8.85401 23.8269 9.17533 23.8609C9.55667 23.8964 9.97185 23.7202 10.3062 24.0421C10.2169 24.2476 10.0236 24.2059 9.85911 24.2242C9.68939 24.2433 9.51012 24.2076 9.35643 24.3225C9.25958 24.5185 9.25615 24.7132 9.36331 24.9277C9.66929 25.0717 10.0053 24.9739 10.3291 25.0041C10.7066 25.0427 11.1202 24.8577 11.4492 25.1865C11.358 25.3896 11.1654 25.3484 11.0007 25.3674C10.8314 25.3869 10.651 25.3458 10.4953 25.4719C10.3937 25.6619 10.4186 25.8566 10.483 26.0597C10.8123 26.2142 11.1482 26.1169 11.4719 26.1469C11.8493 26.1854 12.263 26.0004 12.5919 26.3292C12.5006 26.5323 12.3079 26.4911 12.1431 26.5101C11.9737 26.5297 11.7932 26.4885 11.6379 26.6149C11.5456 26.8053 11.541 27.0001 11.6496 27.2139C11.9562 27.3567 12.2921 27.2596 12.6162 27.2896C12.994 27.3331 13.4155 27.1303 13.736 27.4893C13.4884 27.7978 13.0939 27.5534 12.7951 27.745C12.6224 27.9878 12.7967 28.3325 12.6 28.5851C12.2338 28.793 11.825 28.6775 11.4398 28.7401C10.7496 28.7094 10.0587 28.6632 9.38873 28.7606C9.25327 29.011 9.27544 29.2248 9.36114 29.4915C10.0375 29.6629 10.7493 29.5245 11.4494 29.5738C11.8343 29.61 12.2529 29.4329 12.5914 29.7548C12.5047 29.9595 12.313 29.9183 12.1502 29.9383C11.9826 29.9588 11.8042 29.9171 11.647 30.0352C11.5385 30.2207 11.55 30.4135 11.64 30.6316C11.9538 30.7901 12.3028 30.6861 12.6382 30.7165C13.2067 30.6925 13.7746 30.7013 14.3421 30.7111C14.5384 30.7144 14.7639 30.6839 14.8784 30.9172C14.7062 31.1484 14.4506 31.0767 14.2225 31.0906C13.7533 31.1186 13.2777 31.0437 12.8313 31.1453C12.6927 31.3727 12.6966 31.565 12.8048 31.7624C13.0835 31.9376 13.4447 31.7707 13.7199 31.9893C13.9513 32.2418 13.78 32.6035 13.9475 32.9113C14.3405 33.0782 14.772 32.9618 15.19 32.9958C15.4999 33.0213 15.8269 32.9268 16.1123 33.1277C16.1918 33.5205 16.1866 33.9064 16.0269 34.304C15.3606 34.5761 14.6439 34.3195 13.9843 34.4816C13.7722 34.772 13.9471 35.136 13.7252 35.4286C13.5577 35.5948 13.3122 35.5676 13.0783 35.5712C12.1771 35.5845 11.2755 35.5519 10.3754 35.5969C10.0368 35.5888 9.69298 35.4967 9.36538 35.6295C9.24346 35.8755 9.27377 36.1016 9.33143 36.3328C9.67315 36.5073 10.0238 36.4021 10.3617 36.4299C10.9282 36.4073 11.4939 36.4149 12.0593 36.4252C12.2548 36.4285 12.4796 36.398 12.5929 36.6311C12.4203 36.862 12.1644 36.7894 11.9361 36.8039C11.4669 36.8339 10.9904 36.752 10.5425 36.8618C10.4088 37.0887 10.4091 37.281 10.5428 37.5179C11.2089 37.6236 11.9054 37.5369 12.5963 37.5717C15.5431 37.5446 18.4902 37.58 21.3932 37.5522C21.6758 37.2265 21.4684 36.8258 21.7881 36.4887C22.7635 36.2959 23.8481 36.5266 24.874 36.3709C25.0775 36.0481 24.914 35.6826 25.2061 35.3455C26.1769 35.1596 27.2449 35.3717 28.274 35.2351C28.5333 34.9453 28.3259 34.5449 28.5776 34.2697C28.8261 34.0473 29.1944 34.2195 29.4696 34.0373C29.6494 33.7636 29.4853 33.3962 29.7132 33.1367C29.9731 32.9108 30.3402 33.0729 30.6142 32.8918C30.7911 32.6156 30.6259 32.2487 30.8559 31.9895C31.1201 31.7709 31.4837 31.9283 31.7555 31.7564C31.9305 31.5107 31.7713 31.1715 32.0005 30.9494Z" fill="#2096CA"/>
<path d="M11.4314 25.2359C11.4421 25.2004 11.4327 25.1704 11.3989 25.1571C11.3721 25.1466 11.3415 25.1414 11.3126 25.1414C10.9713 25.1402 10.63 25.1406 10.2887 25.1406C10.0814 24.7914 10.0813 24.4424 10.2887 24.0931C10.2994 24.0577 10.29 24.0277 10.2561 24.0143C10.2293 24.0039 10.1988 23.9986 10.1699 23.9986C9.82857 23.9974 9.48728 23.9979 9.14599 23.9979C8.90316 23.2361 8.90316 22.4743 9.14599 21.7125C9.55689 21.5218 9.81939 21.5177 10.2833 21.6982C10.5128 21.9532 10.3616 22.3141 10.5379 22.649C11.1142 22.7578 11.7181 22.7255 12.3113 22.6678C12.4682 22.4129 12.4474 22.1898 12.3475 21.9646C12.0702 21.7677 11.7033 21.941 11.4288 21.7151C11.2017 21.4675 11.3654 21.1037 11.2003 20.8171C10.9363 20.6226 10.5692 20.799 10.2268 20.5255C10.131 19.8531 10.0201 19.1177 10.2887 18.3795C10.2994 18.3441 10.29 18.3141 10.2561 18.3009C10.2293 18.2904 10.1988 18.2851 10.1699 18.285C9.82857 18.2839 9.48728 18.2843 9.14599 18.2843C9.01979 18.146 8.99953 17.9739 8.99772 17.7988C8.98927 16.9798 8.98927 16.1607 8.99772 15.3417C8.99953 15.1665 9.01981 14.9945 9.14599 14.8561C9.40777 14.6203 9.76651 14.7996 10.0543 14.6458C10.2511 14.4022 10.0471 14.0412 10.2887 13.8086C10.3045 13.8086 10.3257 13.8152 10.3352 13.8075C10.3714 13.7782 10.4038 13.7442 10.4345 13.7149H11.3845C11.4165 13.7356 11.4314 13.761 11.4314 13.7926C11.4314 14.1089 11.4309 14.4252 11.4323 14.7414C11.4324 14.7704 11.4445 14.7993 11.451 14.8282C11.463 14.8375 11.475 14.8549 11.487 14.855C11.8345 14.8564 12.182 14.8561 12.5249 14.8561C12.5593 14.8783 12.5742 14.9038 12.5742 14.9354C12.5742 15.2517 12.5737 15.568 12.575 15.8843C12.5751 15.9132 12.5872 15.9421 12.5938 15.971C12.6058 15.9803 12.6178 15.9977 12.6298 15.9977C12.9773 15.9992 13.3248 15.9989 13.6676 15.9989C13.7021 16.0211 13.7169 16.0466 13.7169 16.0782C13.7169 16.3945 13.7164 16.7108 13.7177 17.0271C13.7179 17.056 13.73 17.0849 13.7366 17.1138C13.7486 17.123 13.7606 17.1404 13.7726 17.1404C14.5158 17.1417 15.2591 17.1416 16.0023 17.1416C16.2378 17.4035 16.0597 17.7613 16.2207 18.0672C16.5182 18.2157 16.8554 18.1128 17.1781 18.1471C17.5519 18.164 17.9421 18.0452 18.2878 18.2843C18.2878 18.6411 18.2877 18.9979 18.2879 19.3547C18.2879 19.3946 18.3169 19.4161 18.383 19.427C18.7322 19.2196 19.0813 19.2196 19.4305 19.427C19.795 19.427 20.1596 19.427 20.5242 19.427C20.5406 19.4516 20.5708 19.4761 20.5711 19.501C20.5744 19.8021 20.5727 20.1032 20.5737 20.4043C20.5737 20.4495 20.5799 20.4948 20.5827 20.5329C20.6025 20.5498 20.6142 20.5686 20.6258 20.5686C21.7355 20.5698 22.8448 20.5698 23.9528 20.5698C23.9978 20.539 24.0019 20.4945 24.0019 20.4462C24.0014 19.0831 24.0014 17.72 24.0014 16.357V16.0453C24.0288 16.0201 24.0402 16.0003 24.0516 16.0002C24.4001 15.9986 24.7487 15.9989 25.097 15.9989C25.1129 15.9728 25.142 15.9476 25.1422 15.9223C25.1446 15.2566 25.1436 14.5909 25.1451 13.9253C25.1451 13.8644 25.1279 13.8007 25.1617 13.7432C25.1743 13.7329 25.186 13.7147 25.1979 13.7147C25.5462 13.7131 25.8945 13.7134 26.2373 13.7134C26.2728 13.6908 26.2868 13.6652 26.2868 13.6332C26.2868 13.3163 26.2863 12.9992 26.2878 12.6823C26.288 12.6536 26.3013 12.6249 26.3087 12.5964C26.3211 12.5878 26.3335 12.5718 26.3459 12.5718C26.6934 12.5704 27.0413 12.5707 27.3819 12.5707C27.4003 12.5524 27.4207 12.5417 27.4212 12.53C27.4381 12.1702 27.4241 11.8094 27.431 11.4637C27.4681 11.4426 27.481 11.4289 27.4936 11.4289C29.7436 11.428 31.9935 11.428 34.2349 11.428C34.2742 11.4522 34.2864 11.4781 34.2861 11.5108C34.2856 11.8278 34.2866 12.1448 34.2849 12.4618C34.2847 12.4968 34.2859 12.5252 34.3097 12.547C34.3223 12.5549 34.3349 12.5697 34.3475 12.5697C34.6949 12.5709 35.0425 12.5707 35.3907 12.5707C35.4679 12.6942 35.4174 12.8226 35.4265 12.9441C35.436 13.0702 35.4231 13.1979 35.4303 13.3243C35.4372 13.4473 35.401 13.5738 35.4493 13.6929C35.8264 13.7194 37.0067 13.724 37.6848 13.7017C37.7512 13.5862 37.7033 13.4583 37.7121 13.3364C37.7212 13.2102 37.7078 13.0825 37.7157 12.9563C37.7233 12.8336 37.684 12.7068 37.7348 12.5923C37.7576 12.5824 37.7709 12.5714 37.7845 12.5714C38.4978 12.5706 39.211 12.5707 39.9243 12.5708C39.9678 12.5708 39.9895 12.5992 39.9995 12.6659C40.2195 13.0151 40.1995 13.3642 39.9995 13.7134C39.6426 13.7134 39.2858 13.7134 38.9291 13.7135C38.8891 13.7136 38.8677 13.7426 38.8568 13.8086C39.0627 14.1345 39.0432 14.4697 38.8984 14.8092C38.642 15.1251 38.2259 14.8813 37.9276 15.0832C37.8166 15.3036 37.8295 15.5301 37.9085 15.7669C38.1442 15.9232 38.3825 15.8627 38.6058 15.8099C38.8361 15.4959 38.5889 15.0776 38.8989 14.8182C39.272 14.6674 39.64 14.639 39.9995 14.8561C40.3563 14.8561 40.7132 14.8561 41.0698 14.8563C41.1098 14.8563 41.1313 14.8853 41.1422 14.9514C41.3622 15.3005 41.3422 15.6497 41.1422 15.9989C40.7853 15.9989 40.4285 15.9988 40.0719 15.999C40.0319 15.999 40.0104 16.028 39.9995 16.0941C40.2068 16.4433 40.2068 16.7924 39.9995 17.1416C39.6426 17.1416 39.2858 17.1415 38.9291 17.1417C38.8891 17.1417 38.8677 17.1708 38.8568 17.2368C39.0641 17.586 39.0641 17.9351 38.8568 18.2843C38.4999 18.2843 38.143 18.2842 37.7864 18.2844C37.7464 18.2845 37.725 18.3135 37.714 18.3795C37.9543 19.1096 37.9543 19.8397 37.714 20.5698H36.6437C36.6037 20.57 36.5823 20.5988 36.5713 20.665C36.7223 20.8323 36.7218 21.0407 36.7225 21.2459C36.727 22.3505 36.7273 23.4551 36.7225 24.5598C36.7218 24.765 36.7223 24.9733 36.5713 25.1406H35.501C35.461 25.1409 35.4395 25.1697 35.4286 25.2359C35.6688 25.966 35.6688 26.6959 35.4286 27.4261H34.3582C34.3183 27.4263 34.2968 27.4554 34.2859 27.5213C34.5261 28.2515 34.5261 28.9814 34.2859 29.7115H33.2155C33.1755 29.7118 33.1541 29.7406 33.1432 29.8068C33.3505 30.156 33.3505 30.505 33.1432 30.8543H32.0728C32.0328 30.8545 32.0114 30.8833 32.0004 30.9495V31.9486C31.9757 31.9648 31.9509 31.9946 31.9257 31.9948C31.6245 31.9982 31.3231 31.9965 31.022 31.9974C30.9767 31.9977 30.9315 32.0041 30.8937 32.007C30.8772 32.0272 30.8589 32.0391 30.8589 32.051C30.8575 32.3993 30.8577 32.7476 30.8577 33.0897C30.8346 33.1264 30.8089 33.1399 30.7768 33.1399C30.4597 33.1397 30.1423 33.1404 29.8252 33.1387C29.7905 33.1385 29.7619 33.1397 29.7395 33.1625C29.7314 33.1752 29.7162 33.1875 29.7159 33.1999C29.7147 33.5477 29.715 33.8956 29.715 34.2348C29.6955 34.2543 29.6843 34.2753 29.6728 34.2755C29.3248 34.2791 28.9767 34.2803 28.6287 34.2836C28.6165 34.2836 28.6044 34.3007 28.587 34.3138C28.5516 34.4322 28.5792 34.5581 28.5735 34.6821C28.5682 34.7928 28.5749 34.9042 28.5715 35.0152C28.5677 35.1402 28.5856 35.2661 28.562 35.3878C28.5482 35.4016 28.5387 35.417 28.5251 35.4228C28.5118 35.4287 28.4944 35.4251 28.4787 35.4251C27.3843 35.4251 26.2902 35.4251 25.196 35.4263C25.1843 35.4263 25.1727 35.4456 25.157 35.4594C25.1265 35.5789 25.1498 35.7049 25.1451 35.8294C25.1405 35.9401 25.1474 36.0515 25.1431 36.1622C25.1386 36.2869 25.1608 36.4129 25.1317 36.5329C25.1165 36.5469 25.1051 36.5664 25.0936 36.5667C23.9835 36.5679 22.8734 36.5679 21.7633 36.5679C21.7476 36.5931 21.7183 36.6181 21.7181 36.6436C21.7147 36.9447 21.7164 37.2461 21.7155 37.5475C21.7152 37.5925 21.7086 37.6375 21.7055 37.6751C21.6847 37.6915 21.6728 37.7094 21.6609 37.7094C18.632 37.7106 15.6031 37.7106 12.5742 37.7106C12.3668 37.3613 12.3668 37.0123 12.5742 36.6631C12.5851 36.6271 12.5759 36.5938 12.5408 36.5843C12.4977 36.5724 12.4512 36.5686 12.4062 36.5686C11.7004 36.5676 10.9945 36.5679 10.2887 36.5679C10.0878 36.2186 10.0704 35.8696 10.2887 35.5204C10.3046 35.5204 10.3258 35.527 10.3353 35.5192C10.3716 35.4899 10.4041 35.4559 10.4386 35.423H13.6701C13.704 35.4018 13.7171 35.3759 13.7171 35.3435C13.7167 35.0264 13.7176 34.709 13.7159 34.3919C13.7156 34.3569 13.7169 34.3284 13.7404 34.3065C13.753 34.2984 13.7655 34.2834 13.7781 34.2834C14.5065 34.2824 15.235 34.2824 15.9547 34.2824C15.9746 34.2624 15.9955 34.2515 15.9956 34.24C15.9974 33.9237 15.997 33.607 15.997 33.2928C16.033 33.2552 16.067 33.2225 16.0964 33.1864C16.1041 33.1768 16.0975 33.1556 16.0975 33.1397C16.2924 32.9538 16.5399 33.0083 16.7716 32.9935C17.1928 32.9671 17.621 33.0511 18.0364 32.9285C18.1773 32.6931 18.1559 32.4703 18.0347 32.2041C16.9987 32.0267 15.9169 32.2719 14.8631 32.0608C14.6825 31.6618 14.6345 31.3073 14.8596 30.9495C14.8705 30.9135 14.8614 30.8802 14.8263 30.8707C14.7832 30.8588 14.7367 30.855 14.6916 30.855C13.9858 30.854 13.28 30.8543 12.5742 30.8543C12.3668 30.505 12.3668 30.156 12.5742 29.8068C12.5849 29.7713 12.5755 29.7413 12.5416 29.728C12.5148 29.7175 12.4842 29.7122 12.4553 29.7122C12.114 29.7111 11.7727 29.7115 11.4314 29.7115C11.2306 29.3623 11.2131 29.0133 11.4314 28.664C11.4472 28.664 11.4683 28.6705 11.4778 28.6628C11.5138 28.6336 11.5461 28.5998 11.5784 28.5688H12.5742C12.8362 28.3357 13.1923 28.5069 13.4796 28.3643C13.6724 28.1141 13.4853 27.757 13.7169 27.5213C13.7276 27.4858 13.7182 27.4558 13.6843 27.4425C13.6575 27.432 13.627 27.4268 13.5981 27.4268C13.2567 27.4256 12.9154 27.4261 12.5742 27.4261C12.3668 27.0768 12.3668 26.7278 12.5742 26.3786C12.5849 26.3431 12.5755 26.3131 12.5416 26.2998C12.5148 26.2893 12.4842 26.2841 12.4553 26.2841C12.114 26.2829 11.7727 26.2834 11.4314 26.2834C11.2241 25.9341 11.224 25.5851 11.4314 25.2359Z" fill="#E7F6FB"/>
<path d="M36.5713 25.1406V20.6649H37.6652C37.6814 20.6897 37.7119 20.7142 37.7119 20.739C37.7142 22.0705 37.714 23.402 37.714 24.7337V25.0853C37.6859 25.117 37.6754 25.1391 37.665 25.1391C37.3005 25.1408 36.9358 25.1406 36.5713 25.1406Z" fill="#1F789D"/>
<path d="M37.7141 20.5698V18.3795C38.0786 18.3795 38.4428 18.3795 38.8073 18.3795C38.8237 18.4039 38.8547 18.4283 38.8547 18.4529C38.8573 19.134 38.8568 19.8153 38.8561 20.4964C38.8561 20.5102 38.8466 20.5238 38.8414 20.5376C38.8299 20.5483 38.8187 20.5683 38.8073 20.5683C38.4428 20.57 38.0786 20.5698 37.7141 20.5698Z" fill="#1F789F"/>
<path d="M35.4287 27.4261V25.2358H36.5219C36.5383 25.2604 36.5693 25.2846 36.5693 25.3092C36.5719 25.9903 36.5714 26.6716 36.5707 27.3527C36.5707 27.3665 36.5612 27.3801 36.556 27.3939C36.5445 27.4046 36.5333 27.4246 36.5219 27.4246C36.1574 27.4263 35.7932 27.4261 35.4287 27.4261Z" fill="#1F789F"/>
<path d="M34.2859 29.7115V27.5212H35.3791C35.3955 27.5458 35.4265 27.57 35.4265 27.5946C35.4291 28.2757 35.4286 28.957 35.4279 29.6381C35.4279 29.6519 35.4184 29.6655 35.4131 29.6793C35.4017 29.69 35.3905 29.71 35.3791 29.71C35.0146 29.7117 34.6504 29.7115 34.2859 29.7115Z" fill="#1F789F"/>
<path d="M18.2877 18.2842H17.145C16.9371 17.9353 16.9743 17.5745 17.0922 17.2095C17.1097 17.1868 17.1273 17.1642 17.145 17.1415C17.5056 17.1415 17.8661 17.1413 18.2267 17.1425C18.2391 17.1425 18.2515 17.1574 18.2639 17.1653C18.2718 17.1777 18.2867 17.1901 18.2867 17.2025C18.2879 17.5631 18.2877 17.9236 18.2877 18.2842Z" fill="#1F98CD"/>
<path d="M41.1421 15.9988V14.9513C41.1578 14.9513 41.179 14.9579 41.1885 14.9501C41.2247 14.9208 41.2571 14.8869 41.2883 14.8571H42.2386C42.2543 14.8833 42.2827 14.9084 42.2829 14.9339C42.2858 15.2656 42.285 15.5973 42.2841 15.929C42.2841 15.9423 42.2729 15.9557 42.267 15.969C42.2553 15.9789 42.2436 15.9975 42.232 15.9975C41.8687 15.9991 41.5054 15.9988 41.1421 15.9988Z" fill="#1F789F"/>
<path d="M39.9995 13.7134V12.6659C40.0152 12.6659 40.0364 12.6725 40.0459 12.6647C40.0821 12.6354 40.1145 12.6015 40.1457 12.5717H41.0961C41.1118 12.5979 41.1401 12.623 41.1403 12.6485C41.1432 12.9802 41.1425 13.3119 41.1415 13.6436C41.1415 13.6569 41.1303 13.6702 41.1244 13.6836C41.1127 13.6935 41.101 13.7121 41.0894 13.7121C40.7261 13.7137 40.3628 13.7134 39.9995 13.7134Z" fill="#1F789F"/>
<path d="M19.4306 19.4269H18.3831C18.3831 19.0628 18.3831 18.6987 18.3831 18.3345C18.4072 18.3177 18.4313 18.2867 18.4556 18.2864C18.7564 18.2831 19.0572 18.284 19.358 18.2849C19.3717 18.2849 19.3853 18.2949 19.3989 18.3002C19.4095 18.3116 19.4292 18.3231 19.4292 18.3346C19.4309 18.6987 19.4306 19.0628 19.4306 19.4269Z" fill="#2098CC"/>
<path d="M38.8567 18.2842V17.2367C39.2207 17.2367 39.5849 17.2367 39.9492 17.2367C39.9658 17.2609 39.997 17.2849 39.9973 17.3093C40.0006 17.6101 39.9996 17.9109 39.9987 18.2117C39.9987 18.2253 39.9887 18.2389 39.9835 18.2525C39.972 18.2631 39.9606 18.2828 39.9492 18.2829C39.5849 18.2845 39.2207 18.2842 38.8567 18.2842Z" fill="#2179A0"/>
<path d="M39.9995 17.1415V16.094C40.3635 16.094 40.7278 16.094 41.092 16.094C41.1087 16.1182 41.1399 16.1422 41.1401 16.1666C41.1434 16.4674 41.1425 16.7682 41.1415 17.069C41.1415 17.0826 41.1315 17.0962 41.1263 17.1098C41.1149 17.1204 41.1034 17.1401 41.092 17.1402C40.7278 17.1418 40.3635 17.1415 39.9995 17.1415Z" fill="#2179A0"/>
<path d="M39.9994 14.8561H38.8567V13.8086C39.2171 13.8086 39.5776 13.8084 39.9378 13.8096C39.9504 13.8096 39.9627 13.8242 39.9751 13.832C39.9832 13.8443 39.9985 13.8566 39.9985 13.869C39.9996 14.198 39.9994 14.5271 39.9994 14.8561Z" fill="#2179A0"/>
<path d="M33.1431 30.8543V29.8068H34.2356C34.2522 29.8308 34.2834 29.8549 34.2836 29.8794C34.287 30.1801 34.286 30.481 34.2851 30.7816C34.2851 30.7955 34.2751 30.809 34.2698 30.8226C34.2584 30.8331 34.247 30.8528 34.2356 30.8528C33.8713 30.8545 33.5071 30.8543 33.1431 30.8543Z" fill="#2179A0"/>
<path d="M33.1432 31.997C32.8144 31.997 32.4854 31.9972 32.1567 31.996C32.1443 31.996 32.1319 31.981 32.1195 31.9732C32.1117 31.9608 32.0967 31.9484 32.0967 31.936C32.0955 31.6073 32.0957 31.2783 32.0957 30.9495C32.4245 30.9495 32.7535 30.9492 33.0823 30.9504C33.0947 30.9504 33.107 30.9654 33.1194 30.9733C33.1273 30.9857 33.1423 30.998 33.1423 31.0104C33.1435 31.3392 33.1432 31.6682 33.1432 31.997Z" fill="#2179A0"/>
<path d="M17.0497 17.1415C17.0497 16.8095 17.0497 16.4775 17.0497 16.1454C17.0259 16.1283 17.0023 16.0965 16.9783 16.0962C16.678 16.0929 16.3776 16.0941 16.0771 16.0939C16.0341 16.0939 16.0122 16.0654 16.0022 15.9988C16.3628 15.9988 16.7233 15.9986 17.0839 15.9998C17.0964 15.9998 17.1087 16.0147 17.1211 16.0226C17.129 16.035 17.1439 16.0474 17.1439 16.0598C17.1452 16.4204 17.1449 16.7809 17.1449 17.1415C17.1132 17.1746 17.0814 17.1746 17.0497 17.1415Z" fill="#1F98CD"/>
<path d="M21.6966 37.8058C21.7066 37.8691 21.7152 37.8989 21.7152 37.9286C21.7164 38.2141 21.7161 38.4995 21.7152 38.785C21.715 38.7983 21.7033 38.8116 21.6969 38.8247C21.685 38.8342 21.6731 38.8521 21.6612 38.8521C18.648 38.8533 15.6349 38.8533 12.6218 38.8533C12.6059 38.8283 12.5765 38.8033 12.5762 38.7778C12.573 38.4767 12.5739 38.1753 12.5749 37.8741C12.575 37.8608 12.5868 37.8474 12.5932 37.8344C12.6051 37.8248 12.617 37.807 12.629 37.807C15.6421 37.8058 18.6551 37.8058 21.6966 37.8058Z" fill="#1F789D"/>
<path d="M10.2887 18.3795C10.2887 19.0934 10.2887 19.8073 10.2887 20.5212C10.3135 20.5374 10.3383 20.5674 10.3633 20.5676C10.6647 20.5709 10.9661 20.5693 11.2675 20.5702C11.3127 20.5705 11.3579 20.5769 11.3956 20.58C11.4122 20.6005 11.4302 20.6121 11.4302 20.624C11.4317 20.9726 11.4314 21.3209 11.4314 21.6622C11.455 21.6999 11.4807 21.7127 11.5132 21.7127C11.8305 21.7122 12.1478 21.7132 12.4651 21.7115C12.5001 21.7113 12.5285 21.7125 12.5504 21.7363C12.5583 21.7489 12.5731 21.7615 12.5732 21.7741C12.5744 22.1217 12.5742 22.4695 12.5742 22.8076C12.5534 22.8283 12.5422 22.8492 12.531 22.8495C11.8018 22.8523 11.0727 22.8538 10.3435 22.854C10.3316 22.854 10.3197 22.8362 10.3029 22.8228C10.2692 22.704 10.2952 22.5781 10.2897 22.4538C10.2848 22.3429 10.2887 22.2317 10.2887 22.1205V21.7627C10.2625 21.7353 10.2516 21.7139 10.2406 21.7139C9.87574 21.7122 9.51088 21.7125 9.146 21.7125C9.146 20.6243 9.14593 19.5359 9.14678 18.4476C9.14681 18.4345 9.15866 18.4213 9.16497 18.4082C9.1768 18.3986 9.18859 18.3808 9.20044 18.3807C9.56319 18.3793 9.92595 18.3795 10.2887 18.3795Z" fill="#1D779E"/>
<path d="M14.8596 30.9495C14.8596 31.2813 14.8593 31.613 14.8608 31.9446C14.8609 31.9563 14.8797 31.9679 14.8898 31.9796C14.9032 31.9853 14.9166 31.9963 14.93 31.9963C16.0351 31.997 17.1402 31.997 18.237 31.997C18.2758 32.021 18.2881 32.0467 18.288 32.0793C18.2876 32.4112 18.288 32.7428 18.2868 33.0747C18.2868 33.0876 18.2736 33.1004 18.2666 33.1133C18.2545 33.1221 18.2423 33.1385 18.2302 33.1385C17.5193 33.1399 16.8084 33.1397 16.0975 33.1397C15.3214 33.1397 14.5454 33.1399 13.7693 33.1385C13.7576 33.1385 13.7459 33.1195 13.73 33.1059C13.6989 32.9866 13.7228 32.8609 13.7178 32.7366C13.7133 32.6259 13.7198 32.5148 13.7161 32.4041C13.7118 32.2793 13.732 32.1536 13.7067 32.0384C13.6897 32.0201 13.6791 31.9984 13.6683 31.9984C13.3199 31.9967 12.9715 31.997 12.623 31.997C12.6067 31.9722 12.5765 31.9477 12.5762 31.9229C12.573 31.622 12.5739 31.3211 12.5749 31.0202C12.5749 31.0066 12.5857 30.9933 12.5914 30.9797C12.6031 30.9697 12.6147 30.9507 12.6264 30.9507C13.3708 30.9492 14.1152 30.9495 14.8596 30.9495Z" fill="#1D779E"/>
<path d="M9.14599 14.8561V18.2843C8.78149 18.2843 8.41696 18.2843 8.05243 18.2843C8.03603 18.2597 8.00536 18.2351 8.00532 18.2105C8.00294 17.117 8.00322 16.0234 8.00389 14.9299C8.00391 14.9161 8.01334 14.9024 8.01839 14.8886C8.02974 14.8778 8.04105 14.8575 8.05245 14.8575C8.41696 14.8558 8.78149 14.8561 9.14599 14.8561Z" fill="#1D779E"/>
<path d="M21.8375 37.7106C21.8208 37.6639 21.8117 37.6501 21.8117 37.6363C21.8108 37.3354 21.8108 37.0345 21.8117 36.7333C21.8117 36.72 21.8227 36.7067 21.8287 36.6931C21.8403 36.6831 21.852 36.6643 21.8636 36.6643C22.9409 36.6631 24.0182 36.6631 25.0954 36.6631C25.1116 36.6878 25.1416 36.7124 25.1418 36.7374C25.1452 37.0518 25.144 37.3663 25.144 37.6656C25.1147 37.6906 25.103 37.7094 25.0914 37.7094C24.0141 37.7106 22.9369 37.7106 21.8375 37.7106Z" fill="#1F789F"/>
<path d="M28.5546 35.5503C28.5605 35.5639 28.5715 35.5772 28.5715 35.5905C28.5724 35.8917 28.5724 36.1926 28.5715 36.4935C28.5715 36.5073 28.5624 36.5211 28.5601 36.5276C28.5446 36.5445 28.5341 36.5664 28.5236 36.5664C27.4464 36.5678 26.3691 36.5678 25.2919 36.5666C25.2802 36.5666 25.2685 36.5478 25.2569 36.5378C25.2509 36.5242 25.24 36.5109 25.24 36.4976C25.239 36.1964 25.239 35.8955 25.24 35.5946C25.24 35.5808 25.249 35.567 25.2514 35.5605C25.2669 35.5436 25.2773 35.5217 25.2881 35.5217C26.3651 35.5203 27.4423 35.5203 28.5196 35.5215C28.5312 35.5215 28.5429 35.5403 28.5546 35.5503Z" fill="#1F789F"/>
<path d="M11.4315 28.6639V29.7114C10.6902 29.7114 9.94892 29.7114 9.20763 29.7105C9.19511 29.7105 9.18261 29.6957 9.17009 29.6879C9.16206 29.6755 9.14707 29.6631 9.14702 29.6505C9.14576 29.3041 9.14602 28.958 9.14602 28.6192C9.16975 28.5813 9.19539 28.5685 9.22765 28.5685C9.9374 28.5687 10.6471 28.5687 11.3569 28.5687C11.3995 28.5687 11.4213 28.5973 11.4315 28.6639Z" fill="#1D779E"/>
<path d="M9.14604 21.7124V23.9979H8.05289C8.03634 23.9733 8.00549 23.9491 8.00539 23.9245C8.00282 23.2115 8.00325 22.4987 8.00397 21.7857C8.00397 21.7719 8.01358 21.7584 8.01873 21.7446C8.03013 21.7338 8.04149 21.7138 8.05291 21.7138C8.4173 21.7122 8.78164 21.7124 9.14604 21.7124Z" fill="#1D779E"/>
<path d="M12.5742 36.6631V37.7106H10.3396C10.3227 37.6866 10.2912 37.6627 10.2909 37.6385C10.2876 37.3237 10.2888 37.009 10.2888 36.7093C10.3166 36.684 10.3281 36.6645 10.3397 36.6643C11.0845 36.6629 11.8293 36.6631 12.5742 36.6631Z" fill="#1F789F"/>
<path d="M10.2887 13.8085C10.2887 14.1376 10.289 14.4667 10.2877 14.7957C10.2877 14.808 10.2726 14.8203 10.2645 14.8327C10.2521 14.8404 10.2397 14.855 10.2272 14.855C9.86679 14.8563 9.50641 14.856 9.14602 14.856C9.14602 14.4923 9.14602 14.1285 9.146 13.7647C9.16978 13.7476 9.19342 13.7158 9.21739 13.7155C9.54947 13.7123 9.8816 13.7132 10.2137 13.7134C10.2569 13.7135 10.2787 13.7419 10.2887 13.8085Z" fill="#1F789E"/>
<path d="M10.2887 35.5203V36.5678C9.92749 36.5678 9.56623 36.568 9.20501 36.5668C9.19275 36.5666 9.18056 36.5509 9.16835 36.5425C9.16089 36.5299 9.14701 36.5173 9.14697 36.5047C9.14578 36.1595 9.14602 35.8145 9.14602 35.4746C9.16844 35.4398 9.19375 35.425 9.2252 35.425H10.2147C10.2566 35.4253 10.2784 35.4539 10.2887 35.5203Z" fill="#1F789E"/>
<path d="M16.0022 17.1415H17.1449V18.2842C16.7844 18.2842 16.4238 18.2844 16.0632 18.2832C16.0508 18.2832 16.0384 18.2683 16.026 18.2604C16.0181 18.248 16.0033 18.2356 16.0032 18.2232C16.002 17.8626 16.0022 17.5021 16.0022 17.1415Z" fill="#27A6DC"/>
<path d="M13.717 27.5213C13.717 27.8503 13.7172 28.1793 13.7159 28.5083C13.7159 28.5207 13.7008 28.533 13.6927 28.5454C13.6803 28.5533 13.6679 28.5678 13.6554 28.5678C13.295 28.569 12.9346 28.5688 12.5742 28.5688C12.5742 28.2397 12.574 27.9107 12.5753 27.5815C12.5753 27.5693 12.5904 27.557 12.5985 27.5446C12.6109 27.5367 12.6234 27.5222 12.6358 27.5222C12.9962 27.521 13.3566 27.5213 13.717 27.5213Z" fill="#2179A0"/>
<path d="M12.574 26.3786V27.426H11.4816C11.4648 27.402 11.4338 27.378 11.4335 27.3534C11.4302 27.0528 11.4311 26.7518 11.432 26.4512C11.432 26.4374 11.442 26.4238 11.4473 26.4102C11.4587 26.3997 11.4702 26.38 11.4817 26.38C11.8458 26.3783 12.2099 26.3786 12.574 26.3786Z" fill="#2179A0"/>
<path d="M12.574 29.8067V30.8541H11.4816C11.4648 30.8301 11.4338 30.8061 11.4335 30.7815C11.4302 30.4809 11.4311 30.1799 11.432 29.8793C11.432 29.8655 11.442 29.8519 11.4473 29.8383C11.4587 29.8278 11.4702 29.8081 11.4817 29.8081C11.8458 29.8064 12.2099 29.8067 12.574 29.8067Z" fill="#2179A0"/>
<path d="M11.4315 25.2359V26.2833H10.339C10.3223 26.2593 10.2912 26.2353 10.2909 26.2107C10.2876 25.9101 10.2885 25.6091 10.2894 25.3085C10.2895 25.2947 10.2994 25.2811 10.3047 25.2675C10.3161 25.257 10.3276 25.2373 10.3391 25.2373C10.7032 25.2356 11.0673 25.2359 11.4315 25.2359Z" fill="#2179A0"/>
<path d="M10.2886 24.0932V25.1406H9.19623C9.17944 25.1166 9.14837 25.0926 9.14809 25.068C9.14476 24.7674 9.14571 24.4664 9.14659 24.1658C9.14664 24.152 9.15656 24.1384 9.16187 24.1248C9.17332 24.1143 9.18475 24.0946 9.19627 24.0946C9.5604 24.0929 9.92452 24.0932 10.2886 24.0932Z" fill="#2179A0"/>
<path d="M28.6675 34.4042C28.7139 34.3876 28.7277 34.3783 28.7415 34.3783C29.0417 34.3773 29.3422 34.3773 29.6426 34.3783C29.6562 34.3783 29.6698 34.3883 29.6833 34.3935C29.6938 34.4049 29.7136 34.4164 29.7136 34.4278C29.7152 34.7439 29.715 35.0601 29.715 35.3763C29.6902 35.3927 29.6659 35.4227 29.6409 35.4229C29.3407 35.4262 29.0403 35.4253 28.7399 35.4243C28.7263 35.4243 28.7127 35.4143 28.6992 35.4091C28.6887 35.3977 28.6689 35.3863 28.6689 35.3748C28.6673 35.0587 28.6675 34.7425 28.6675 34.4042Z" fill="#2179A0"/>
<path d="M30.9529 32.1181C31 32.1017 31.0138 32.0929 31.0276 32.0929C31.3281 32.0919 31.6283 32.0919 31.9287 32.0929C31.9423 32.0929 31.9556 32.1031 31.9692 32.1086C31.9797 32.1203 31.999 32.1317 31.999 32.1431C32.0006 32.4593 32.0004 32.7754 32.0004 33.0916C31.9754 33.1078 31.9506 33.1373 31.9256 33.1375C31.6252 33.1408 31.325 33.1399 31.0246 33.1389C31.011 33.1389 30.9977 33.1287 30.9841 33.1232C30.9736 33.1116 30.9543 33.1001 30.9543 33.0887C30.9527 32.7726 30.9529 32.4564 30.9529 32.1181Z" fill="#2179A0"/>
<path d="M29.8103 33.2627C29.8558 33.2453 29.8696 33.2356 29.8832 33.2356C30.1836 33.2346 30.4838 33.2346 30.7842 33.2356C30.7978 33.2356 30.8116 33.2449 30.8254 33.2501C30.8361 33.2613 30.8564 33.2727 30.8564 33.2839C30.858 33.6001 30.8578 33.9162 30.8578 34.2326C30.8335 34.249 30.8095 34.28 30.785 34.2802C30.4845 34.2835 30.1843 34.2826 29.8839 34.2816C29.8703 34.2816 29.8565 34.2724 29.8427 34.2671C29.832 34.2559 29.8117 34.2445 29.8117 34.2333C29.8101 33.9172 29.8103 33.601 29.8103 33.2627Z" fill="#2179A0"/>
<path d="M38.8567 14.8561V15.9641C38.8165 15.9852 38.8036 15.9979 38.7907 15.998C38.4453 15.999 38.0999 15.9988 37.7616 15.9988C37.7432 15.9806 37.7232 15.9701 37.7223 15.9582C37.7061 15.7523 37.714 15.1619 37.7344 14.8833C37.7463 14.8742 37.7582 14.8573 37.7704 14.8572C38.1325 14.8558 38.4946 14.8561 38.8567 14.8561Z" fill="#237A9F"/>
</svg>
